<svg width="512" height="512" viewBox="0 0 512 512" xmlns="http://www.w3.org/2000/svg">
  <defs>
    <linearGradient id="gradient" x1="0%" y1="0%" x2="100%" y2="100%">
      <stop offset="0%" style="stop-color:#8b5cf6;stop-opacity:1" />
      <stop offset="100%" style="stop-color:#ec4899;stop-opacity:1" />
    </linearGradient>
  </defs>
  
  <!-- Background circle -->
  <circle cx="256" cy="256" r="240" fill="url(#gradient)"/>
  
  <!-- Shopping cart -->
  <path d="M160 96h48l32 160h160l24-96H240v-32h208l-32 128H224l-8-40H160v-32h40l-8-40H160V96z" fill="white" opacity="0.9"/>
  
  <!-- Cart wheels -->
  <circle cx="240" cy="320" r="16" fill="white"/>
  <circle cx="320" cy="320" r="16" fill="white"/>
  
  <!-- Automation gears -->
  <g transform="translate(320, 180)" fill="white" opacity="0.7">
    <circle cx="0" cy="0" r="24"/>
    <path d="M-8,-8 L8,-8 L8,8 L-8,8 Z"/>
    <path d="M-8,-8 L8,8 M8,-8 L-8,8"/>
  </g>
  
  <g transform="translate(360, 140)" fill="white" opacity="0.6">
    <circle cx="0" cy="0" r="16"/>
    <path d="M-6,-6 L6,-6 L6,6 L-6,6 Z"/>
  </g>
  
  <!-- Plus icon for adding -->
  <g transform="translate(180, 140)" fill="white" opacity="0.8">
    <path d="M-12,0 L12,0 M0,-12 L0,12" stroke="white" stroke-width="4" stroke-linecap="round"/>
  </g>
</svg> 